<svg xmlns="http://www.w3.org/2000/svg" height="40" viewBox="0 -960 960 960" width="40"><path d="M152.391-159.971q-29.66 0-51.04-21.38t-21.38-50.948v-495.402q0-29.873 21.38-51.18 21.38-21.308 51.04-21.308h261.993l66.283 66.442h326.942q29.957 0 50.935 21.547 20.978 21.546 21.645 50.873H449.92l-66.282-66.282H152.391v490.921l97.87-361.306h693.08L840.246-220.34q-9.391 30.934-30.105 45.652-20.713 14.717-52.87 14.717h-604.88Zm74.79-72.42h540.964l76.79-293.023H303.971l-76.79 293.023Zm0 0 76.79-293.023-76.79 293.023Zm-74.79-428.936v-66.282 66.282Z"/></svg>