<?xml version="1.0" encoding="UTF-8" ?>
<svg version="1.1" width="70" height="70" xmlns="http://www.w3.org/2000/svg" shape-rendering="crispEdges">
<rect x="60" y="10" width="1" height="1" fill="#F0F6F0" />
<rect x="61" y="10" width="1" height="1" fill="#F0F6F0" />
<rect x="62" y="10" width="1" height="1" fill="#F0F6F0" />
<rect x="63" y="10" width="1" height="1" fill="#F0F6F0" />
<rect x="64" y="10" width="1" height="1" fill="#F0F6F0" />
<rect x="65" y="10" width="1" height="1" fill="#F0F6F0" />
<rect x="66" y="10" width="1" height="1" fill="#F0F6F0" />
<rect x="67" y="10" width="1" height="1" fill="#F0F6F0" />
<rect x="68" y="10" width="1" height="1" fill="#F0F6F0" />
<rect x="69" y="10" width="1" height="1" fill="#F0F6F0" />
<rect x="60" y="11" width="1" height="1" fill="#F0F6F0" />
<rect x="61" y="11" width="1" height="1" fill="#F0F6F0" />
<rect x="62" y="11" width="1" height="1" fill="#F0F6F0" />
<rect x="63" y="11" width="1" height="1" fill="#F0F6F0" />
<rect x="64" y="11" width="1" height="1" fill="#F0F6F0" />
<rect x="65" y="11" width="1" height="1" fill="#F0F6F0" />
<rect x="66" y="11" width="1" height="1" fill="#F0F6F0" />
<rect x="67" y="11" width="1" height="1" fill="#F0F6F0" />
<rect x="68" y="11" width="1" height="1" fill="#F0F6F0" />
<rect x="69" y="11" width="1" height="1" fill="#F0F6F0" />
<rect x="60" y="12" width="1" height="1" fill="#F0F6F0" />
<rect x="61" y="12" width="1" height="1" fill="#F0F6F0" />
<rect x="62" y="12" width="1" height="1" fill="#F0F6F0" />
<rect x="63" y="12" width="1" height="1" fill="#F0F6F0" />
<rect x="64" y="12" width="1" height="1" fill="#F0F6F0" />
<rect x="65" y="12" width="1" height="1" fill="#F0F6F0" />
<rect x="66" y="12" width="1" height="1" fill="#F0F6F0" />
<rect x="67" y="12" width="1" height="1" fill="#F0F6F0" />
<rect x="68" y="12" width="1" height="1" fill="#F0F6F0" />
<rect x="69" y="12" width="1" height="1" fill="#F0F6F0" />
<rect x="60" y="13" width="1" height="1" fill="#F0F6F0" />
<rect x="61" y="13" width="1" height="1" fill="#F0F6F0" />
<rect x="62" y="13" width="1" height="1" fill="#F0F6F0" />
<rect x="63" y="13" width="1" height="1" fill="#F0F6F0" />
<rect x="64" y="13" width="1" height="1" fill="#F0F6F0" />
<rect x="65" y="13" width="1" height="1" fill="#F0F6F0" />
<rect x="66" y="13" width="1" height="1" fill="#F0F6F0" />
<rect x="67" y="13" width="1" height="1" fill="#F0F6F0" />
<rect x="68" y="13" width="1" height="1" fill="#F0F6F0" />
<rect x="69" y="13" width="1" height="1" fill="#F0F6F0" />
<rect x="60" y="14" width="1" height="1" fill="#F0F6F0" />
<rect x="61" y="14" width="1" height="1" fill="#F0F6F0" />
<rect x="62" y="14" width="1" height="1" fill="#F0F6F0" />
<rect x="63" y="14" width="1" height="1" fill="#F0F6F0" />
<rect x="64" y="14" width="1" height="1" fill="#F0F6F0" />
<rect x="65" y="14" width="1" height="1" fill="#F0F6F0" />
<rect x="66" y="14" width="1" height="1" fill="#F0F6F0" />
<rect x="67" y="14" width="1" height="1" fill="#F0F6F0" />
<rect x="68" y="14" width="1" height="1" fill="#F0F6F0" />
<rect x="69" y="14" width="1" height="1" fill="#F0F6F0" />
<rect x="60" y="15" width="1" height="1" fill="#F0F6F0" />
<rect x="61" y="15" width="1" height="1" fill="#F0F6F0" />
<rect x="62" y="15" width="1" height="1" fill="#F0F6F0" />
<rect x="63" y="15" width="1" height="1" fill="#F0F6F0" />
<rect x="64" y="15" width="1" height="1" fill="#F0F6F0" />
<rect x="65" y="15" width="1" height="1" fill="#F0F6F0" />
<rect x="66" y="15" width="1" height="1" fill="#F0F6F0" />
<rect x="67" y="15" width="1" height="1" fill="#F0F6F0" />
<rect x="68" y="15" width="1" height="1" fill="#F0F6F0" />
<rect x="69" y="15" width="1" height="1" fill="#F0F6F0" />
<rect x="60" y="16" width="1" height="1" fill="#F0F6F0" />
<rect x="61" y="16" width="1" height="1" fill="#F0F6F0" />
<rect x="62" y="16" width="1" height="1" fill="#F0F6F0" />
<rect x="63" y="16" width="1" height="1" fill="#F0F6F0" />
<rect x="64" y="16" width="1" height="1" fill="#F0F6F0" />
<rect x="65" y="16" width="1" height="1" fill="#F0F6F0" />
<rect x="66" y="16" width="1" height="1" fill="#F0F6F0" />
<rect x="67" y="16" width="1" height="1" fill="#F0F6F0" />
<rect x="68" y="16" width="1" height="1" fill="#F0F6F0" />
<rect x="69" y="16" width="1" height="1" fill="#F0F6F0" />
<rect x="60" y="17" width="1" height="1" fill="#F0F6F0" />
<rect x="61" y="17" width="1" height="1" fill="#F0F6F0" />
<rect x="62" y="17" width="1" height="1" fill="#F0F6F0" />
<rect x="63" y="17" width="1" height="1" fill="#F0F6F0" />
<rect x="64" y="17" width="1" height="1" fill="#F0F6F0" />
<rect x="65" y="17" width="1" height="1" fill="#F0F6F0" />
<rect x="66" y="17" width="1" height="1" fill="#F0F6F0" />
<rect x="67" y="17" width="1" height="1" fill="#F0F6F0" />
<rect x="68" y="17" width="1" height="1" fill="#F0F6F0" />
<rect x="69" y="17" width="1" height="1" fill="#F0F6F0" />
<rect x="60" y="18" width="1" height="1" fill="#F0F6F0" />
<rect x="61" y="18" width="1" height="1" fill="#F0F6F0" />
<rect x="62" y="18" width="1" height="1" fill="#F0F6F0" />
<rect x="63" y="18" width="1" height="1" fill="#F0F6F0" />
<rect x="64" y="18" width="1" height="1" fill="#F0F6F0" />
<rect x="65" y="18" width="1" height="1" fill="#F0F6F0" />
<rect x="66" y="18" width="1" height="1" fill="#F0F6F0" />
<rect x="67" y="18" width="1" height="1" fill="#F0F6F0" />
<rect x="68" y="18" width="1" height="1" fill="#F0F6F0" />
<rect x="69" y="18" width="1" height="1" fill="#F0F6F0" />
<rect x="60" y="19" width="1" height="1" fill="#F0F6F0" />
<rect x="61" y="19" width="1" height="1" fill="#F0F6F0" />
<rect x="62" y="19" width="1" height="1" fill="#F0F6F0" />
<rect x="63" y="19" width="1" height="1" fill="#F0F6F0" />
<rect x="64" y="19" width="1" height="1" fill="#F0F6F0" />
<rect x="65" y="19" width="1" height="1" fill="#F0F6F0" />
<rect x="66" y="19" width="1" height="1" fill="#F0F6F0" />
<rect x="67" y="19" width="1" height="1" fill="#F0F6F0" />
<rect x="68" y="19" width="1" height="1" fill="#F0F6F0" />
<rect x="69" y="19" width="1" height="1" fill="#F0F6F0" />
<rect x="50" y="20" width="1" height="1" fill="#F0F6F0" />
<rect x="51" y="20" width="1" height="1" fill="#F0F6F0" />
<rect x="52" y="20" width="1" height="1" fill="#F0F6F0" />
<rect x="53" y="20" width="1" height="1" fill="#F0F6F0" />
<rect x="54" y="20" width="1" height="1" fill="#F0F6F0" />
<rect x="55" y="20" width="1" height="1" fill="#F0F6F0" />
<rect x="56" y="20" width="1" height="1" fill="#F0F6F0" />
<rect x="57" y="20" width="1" height="1" fill="#F0F6F0" />
<rect x="58" y="20" width="1" height="1" fill="#F0F6F0" />
<rect x="59" y="20" width="1" height="1" fill="#F0F6F0" />
<rect x="50" y="21" width="1" height="1" fill="#F0F6F0" />
<rect x="51" y="21" width="1" height="1" fill="#F0F6F0" />
<rect x="52" y="21" width="1" height="1" fill="#F0F6F0" />
<rect x="53" y="21" width="1" height="1" fill="#F0F6F0" />
<rect x="54" y="21" width="1" height="1" fill="#F0F6F0" />
<rect x="55" y="21" width="1" height="1" fill="#F0F6F0" />
<rect x="56" y="21" width="1" height="1" fill="#F0F6F0" />
<rect x="57" y="21" width="1" height="1" fill="#F0F6F0" />
<rect x="58" y="21" width="1" height="1" fill="#F0F6F0" />
<rect x="59" y="21" width="1" height="1" fill="#F0F6F0" />
<rect x="50" y="22" width="1" height="1" fill="#F0F6F0" />
<rect x="51" y="22" width="1" height="1" fill="#F0F6F0" />
<rect x="52" y="22" width="1" height="1" fill="#F0F6F0" />
<rect x="53" y="22" width="1" height="1" fill="#F0F6F0" />
<rect x="54" y="22" width="1" height="1" fill="#F0F6F0" />
<rect x="55" y="22" width="1" height="1" fill="#F0F6F0" />
<rect x="56" y="22" width="1" height="1" fill="#F0F6F0" />
<rect x="57" y="22" width="1" height="1" fill="#F0F6F0" />
<rect x="58" y="22" width="1" height="1" fill="#F0F6F0" />
<rect x="59" y="22" width="1" height="1" fill="#F0F6F0" />
<rect x="50" y="23" width="1" height="1" fill="#F0F6F0" />
<rect x="51" y="23" width="1" height="1" fill="#F0F6F0" />
<rect x="52" y="23" width="1" height="1" fill="#F0F6F0" />
<rect x="53" y="23" width="1" height="1" fill="#F0F6F0" />
<rect x="54" y="23" width="1" height="1" fill="#F0F6F0" />
<rect x="55" y="23" width="1" height="1" fill="#F0F6F0" />
<rect x="56" y="23" width="1" height="1" fill="#F0F6F0" />
<rect x="57" y="23" width="1" height="1" fill="#F0F6F0" />
<rect x="58" y="23" width="1" height="1" fill="#F0F6F0" />
<rect x="59" y="23" width="1" height="1" fill="#F0F6F0" />
<rect x="50" y="24" width="1" height="1" fill="#F0F6F0" />
<rect x="51" y="24" width="1" height="1" fill="#F0F6F0" />
<rect x="52" y="24" width="1" height="1" fill="#F0F6F0" />
<rect x="53" y="24" width="1" height="1" fill="#F0F6F0" />
<rect x="54" y="24" width="1" height="1" fill="#F0F6F0" />
<rect x="55" y="24" width="1" height="1" fill="#F0F6F0" />
<rect x="56" y="24" width="1" height="1" fill="#F0F6F0" />
<rect x="57" y="24" width="1" height="1" fill="#F0F6F0" />
<rect x="58" y="24" width="1" height="1" fill="#F0F6F0" />
<rect x="59" y="24" width="1" height="1" fill="#F0F6F0" />
<rect x="50" y="25" width="1" height="1" fill="#F0F6F0" />
<rect x="51" y="25" width="1" height="1" fill="#F0F6F0" />
<rect x="52" y="25" width="1" height="1" fill="#F0F6F0" />
<rect x="53" y="25" width="1" height="1" fill="#F0F6F0" />
<rect x="54" y="25" width="1" height="1" fill="#F0F6F0" />
<rect x="55" y="25" width="1" height="1" fill="#F0F6F0" />
<rect x="56" y="25" width="1" height="1" fill="#F0F6F0" />
<rect x="57" y="25" width="1" height="1" fill="#F0F6F0" />
<rect x="58" y="25" width="1" height="1" fill="#F0F6F0" />
<rect x="59" y="25" width="1" height="1" fill="#F0F6F0" />
<rect x="50" y="26" width="1" height="1" fill="#F0F6F0" />
<rect x="51" y="26" width="1" height="1" fill="#F0F6F0" />
<rect x="52" y="26" width="1" height="1" fill="#F0F6F0" />
<rect x="53" y="26" width="1" height="1" fill="#F0F6F0" />
<rect x="54" y="26" width="1" height="1" fill="#F0F6F0" />
<rect x="55" y="26" width="1" height="1" fill="#F0F6F0" />
<rect x="56" y="26" width="1" height="1" fill="#F0F6F0" />
<rect x="57" y="26" width="1" height="1" fill="#F0F6F0" />
<rect x="58" y="26" width="1" height="1" fill="#F0F6F0" />
<rect x="59" y="26" width="1" height="1" fill="#F0F6F0" />
<rect x="50" y="27" width="1" height="1" fill="#F0F6F0" />
<rect x="51" y="27" width="1" height="1" fill="#F0F6F0" />
<rect x="52" y="27" width="1" height="1" fill="#F0F6F0" />
<rect x="53" y="27" width="1" height="1" fill="#F0F6F0" />
<rect x="54" y="27" width="1" height="1" fill="#F0F6F0" />
<rect x="55" y="27" width="1" height="1" fill="#F0F6F0" />
<rect x="56" y="27" width="1" height="1" fill="#F0F6F0" />
<rect x="57" y="27" width="1" height="1" fill="#F0F6F0" />
<rect x="58" y="27" width="1" height="1" fill="#F0F6F0" />
<rect x="59" y="27" width="1" height="1" fill="#F0F6F0" />
<rect x="50" y="28" width="1" height="1" fill="#F0F6F0" />
<rect x="51" y="28" width="1" height="1" fill="#F0F6F0" />
<rect x="52" y="28" width="1" height="1" fill="#F0F6F0" />
<rect x="53" y="28" width="1" height="1" fill="#F0F6F0" />
<rect x="54" y="28" width="1" height="1" fill="#F0F6F0" />
<rect x="55" y="28" width="1" height="1" fill="#F0F6F0" />
<rect x="56" y="28" width="1" height="1" fill="#F0F6F0" />
<rect x="57" y="28" width="1" height="1" fill="#F0F6F0" />
<rect x="58" y="28" width="1" height="1" fill="#F0F6F0" />
<rect x="59" y="28" width="1" height="1" fill="#F0F6F0" />
<rect x="50" y="29" width="1" height="1" fill="#F0F6F0" />
<rect x="51" y="29" width="1" height="1" fill="#F0F6F0" />
<rect x="52" y="29" width="1" height="1" fill="#F0F6F0" />
<rect x="53" y="29" width="1" height="1" fill="#F0F6F0" />
<rect x="54" y="29" width="1" height="1" fill="#F0F6F0" />
<rect x="55" y="29" width="1" height="1" fill="#F0F6F0" />
<rect x="56" y="29" width="1" height="1" fill="#F0F6F0" />
<rect x="57" y="29" width="1" height="1" fill="#F0F6F0" />
<rect x="58" y="29" width="1" height="1" fill="#F0F6F0" />
<rect x="59" y="29" width="1" height="1" fill="#F0F6F0" />
<rect x="0" y="30" width="1" height="1" fill="#F0F6F0" />
<rect x="1" y="30" width="1" height="1" fill="#F0F6F0" />
<rect x="2" y="30" width="1" height="1" fill="#F0F6F0" />
<rect x="3" y="30" width="1" height="1" fill="#F0F6F0" />
<rect x="4" y="30" width="1" height="1" fill="#F0F6F0" />
<rect x="5" y="30" width="1" height="1" fill="#F0F6F0" />
<rect x="6" y="30" width="1" height="1" fill="#F0F6F0" />
<rect x="7" y="30" width="1" height="1" fill="#F0F6F0" />
<rect x="8" y="30" width="1" height="1" fill="#F0F6F0" />
<rect x="9" y="30" width="1" height="1" fill="#F0F6F0" />
<rect x="40" y="30" width="1" height="1" fill="#F0F6F0" />
<rect x="41" y="30" width="1" height="1" fill="#F0F6F0" />
<rect x="42" y="30" width="1" height="1" fill="#F0F6F0" />
<rect x="43" y="30" width="1" height="1" fill="#F0F6F0" />
<rect x="44" y="30" width="1" height="1" fill="#F0F6F0" />
<rect x="45" y="30" width="1" height="1" fill="#F0F6F0" />
<rect x="46" y="30" width="1" height="1" fill="#F0F6F0" />
<rect x="47" y="30" width="1" height="1" fill="#F0F6F0" />
<rect x="48" y="30" width="1" height="1" fill="#F0F6F0" />
<rect x="49" y="30" width="1" height="1" fill="#F0F6F0" />
<rect x="0" y="31" width="1" height="1" fill="#F0F6F0" />
<rect x="1" y="31" width="1" height="1" fill="#F0F6F0" />
<rect x="2" y="31" width="1" height="1" fill="#F0F6F0" />
<rect x="3" y="31" width="1" height="1" fill="#F0F6F0" />
<rect x="4" y="31" width="1" height="1" fill="#F0F6F0" />
<rect x="5" y="31" width="1" height="1" fill="#F0F6F0" />
<rect x="6" y="31" width="1" height="1" fill="#F0F6F0" />
<rect x="7" y="31" width="1" height="1" fill="#F0F6F0" />
<rect x="8" y="31" width="1" height="1" fill="#F0F6F0" />
<rect x="9" y="31" width="1" height="1" fill="#F0F6F0" />
<rect x="40" y="31" width="1" height="1" fill="#F0F6F0" />
<rect x="41" y="31" width="1" height="1" fill="#F0F6F0" />
<rect x="42" y="31" width="1" height="1" fill="#F0F6F0" />
<rect x="43" y="31" width="1" height="1" fill="#F0F6F0" />
<rect x="44" y="31" width="1" height="1" fill="#F0F6F0" />
<rect x="45" y="31" width="1" height="1" fill="#F0F6F0" />
<rect x="46" y="31" width="1" height="1" fill="#F0F6F0" />
<rect x="47" y="31" width="1" height="1" fill="#F0F6F0" />
<rect x="48" y="31" width="1" height="1" fill="#F0F6F0" />
<rect x="49" y="31" width="1" height="1" fill="#F0F6F0" />
<rect x="0" y="32" width="1" height="1" fill="#F0F6F0" />
<rect x="1" y="32" width="1" height="1" fill="#F0F6F0" />
<rect x="2" y="32" width="1" height="1" fill="#F0F6F0" />
<rect x="3" y="32" width="1" height="1" fill="#F0F6F0" />
<rect x="4" y="32" width="1" height="1" fill="#F0F6F0" />
<rect x="5" y="32" width="1" height="1" fill="#F0F6F0" />
<rect x="6" y="32" width="1" height="1" fill="#F0F6F0" />
<rect x="7" y="32" width="1" height="1" fill="#F0F6F0" />
<rect x="8" y="32" width="1" height="1" fill="#F0F6F0" />
<rect x="9" y="32" width="1" height="1" fill="#F0F6F0" />
<rect x="40" y="32" width="1" height="1" fill="#F0F6F0" />
<rect x="41" y="32" width="1" height="1" fill="#F0F6F0" />
<rect x="42" y="32" width="1" height="1" fill="#F0F6F0" />
<rect x="43" y="32" width="1" height="1" fill="#F0F6F0" />
<rect x="44" y="32" width="1" height="1" fill="#F0F6F0" />
<rect x="45" y="32" width="1" height="1" fill="#F0F6F0" />
<rect x="46" y="32" width="1" height="1" fill="#F0F6F0" />
<rect x="47" y="32" width="1" height="1" fill="#F0F6F0" />
<rect x="48" y="32" width="1" height="1" fill="#F0F6F0" />
<rect x="49" y="32" width="1" height="1" fill="#F0F6F0" />
<rect x="0" y="33" width="1" height="1" fill="#F0F6F0" />
<rect x="1" y="33" width="1" height="1" fill="#F0F6F0" />
<rect x="2" y="33" width="1" height="1" fill="#F0F6F0" />
<rect x="3" y="33" width="1" height="1" fill="#F0F6F0" />
<rect x="4" y="33" width="1" height="1" fill="#F0F6F0" />
<rect x="5" y="33" width="1" height="1" fill="#F0F6F0" />
<rect x="6" y="33" width="1" height="1" fill="#F0F6F0" />
<rect x="7" y="33" width="1" height="1" fill="#F0F6F0" />
<rect x="8" y="33" width="1" height="1" fill="#F0F6F0" />
<rect x="9" y="33" width="1" height="1" fill="#F0F6F0" />
<rect x="40" y="33" width="1" height="1" fill="#F0F6F0" />
<rect x="41" y="33" width="1" height="1" fill="#F0F6F0" />
<rect x="42" y="33" width="1" height="1" fill="#F0F6F0" />
<rect x="43" y="33" width="1" height="1" fill="#F0F6F0" />
<rect x="44" y="33" width="1" height="1" fill="#F0F6F0" />
<rect x="45" y="33" width="1" height="1" fill="#F0F6F0" />
<rect x="46" y="33" width="1" height="1" fill="#F0F6F0" />
<rect x="47" y="33" width="1" height="1" fill="#F0F6F0" />
<rect x="48" y="33" width="1" height="1" fill="#F0F6F0" />
<rect x="49" y="33" width="1" height="1" fill="#F0F6F0" />
<rect x="0" y="34" width="1" height="1" fill="#F0F6F0" />
<rect x="1" y="34" width="1" height="1" fill="#F0F6F0" />
<rect x="2" y="34" width="1" height="1" fill="#F0F6F0" />
<rect x="3" y="34" width="1" height="1" fill="#F0F6F0" />
<rect x="4" y="34" width="1" height="1" fill="#F0F6F0" />
<rect x="5" y="34" width="1" height="1" fill="#F0F6F0" />
<rect x="6" y="34" width="1" height="1" fill="#F0F6F0" />
<rect x="7" y="34" width="1" height="1" fill="#F0F6F0" />
<rect x="8" y="34" width="1" height="1" fill="#F0F6F0" />
<rect x="9" y="34" width="1" height="1" fill="#F0F6F0" />
<rect x="40" y="34" width="1" height="1" fill="#F0F6F0" />
<rect x="41" y="34" width="1" height="1" fill="#F0F6F0" />
<rect x="42" y="34" width="1" height="1" fill="#F0F6F0" />
<rect x="43" y="34" width="1" height="1" fill="#F0F6F0" />
<rect x="44" y="34" width="1" height="1" fill="#F0F6F0" />
<rect x="45" y="34" width="1" height="1" fill="#F0F6F0" />
<rect x="46" y="34" width="1" height="1" fill="#F0F6F0" />
<rect x="47" y="34" width="1" height="1" fill="#F0F6F0" />
<rect x="48" y="34" width="1" height="1" fill="#F0F6F0" />
<rect x="49" y="34" width="1" height="1" fill="#F0F6F0" />
<rect x="0" y="35" width="1" height="1" fill="#F0F6F0" />
<rect x="1" y="35" width="1" height="1" fill="#F0F6F0" />
<rect x="2" y="35" width="1" height="1" fill="#F0F6F0" />
<rect x="3" y="35" width="1" height="1" fill="#F0F6F0" />
<rect x="4" y="35" width="1" height="1" fill="#F0F6F0" />
<rect x="5" y="35" width="1" height="1" fill="#F0F6F0" />
<rect x="6" y="35" width="1" height="1" fill="#F0F6F0" />
<rect x="7" y="35" width="1" height="1" fill="#F0F6F0" />
<rect x="8" y="35" width="1" height="1" fill="#F0F6F0" />
<rect x="9" y="35" width="1" height="1" fill="#F0F6F0" />
<rect x="40" y="35" width="1" height="1" fill="#F0F6F0" />
<rect x="41" y="35" width="1" height="1" fill="#F0F6F0" />
<rect x="42" y="35" width="1" height="1" fill="#F0F6F0" />
<rect x="43" y="35" width="1" height="1" fill="#F0F6F0" />
<rect x="44" y="35" width="1" height="1" fill="#F0F6F0" />
<rect x="45" y="35" width="1" height="1" fill="#F0F6F0" />
<rect x="46" y="35" width="1" height="1" fill="#F0F6F0" />
<rect x="47" y="35" width="1" height="1" fill="#F0F6F0" />
<rect x="48" y="35" width="1" height="1" fill="#F0F6F0" />
<rect x="49" y="35" width="1" height="1" fill="#F0F6F0" />
<rect x="0" y="36" width="1" height="1" fill="#F0F6F0" />
<rect x="1" y="36" width="1" height="1" fill="#F0F6F0" />
<rect x="2" y="36" width="1" height="1" fill="#F0F6F0" />
<rect x="3" y="36" width="1" height="1" fill="#F0F6F0" />
<rect x="4" y="36" width="1" height="1" fill="#F0F6F0" />
<rect x="5" y="36" width="1" height="1" fill="#F0F6F0" />
<rect x="6" y="36" width="1" height="1" fill="#F0F6F0" />
<rect x="7" y="36" width="1" height="1" fill="#F0F6F0" />
<rect x="8" y="36" width="1" height="1" fill="#F0F6F0" />
<rect x="9" y="36" width="1" height="1" fill="#F0F6F0" />
<rect x="40" y="36" width="1" height="1" fill="#F0F6F0" />
<rect x="41" y="36" width="1" height="1" fill="#F0F6F0" />
<rect x="42" y="36" width="1" height="1" fill="#F0F6F0" />
<rect x="43" y="36" width="1" height="1" fill="#F0F6F0" />
<rect x="44" y="36" width="1" height="1" fill="#F0F6F0" />
<rect x="45" y="36" width="1" height="1" fill="#F0F6F0" />
<rect x="46" y="36" width="1" height="1" fill="#F0F6F0" />
<rect x="47" y="36" width="1" height="1" fill="#F0F6F0" />
<rect x="48" y="36" width="1" height="1" fill="#F0F6F0" />
<rect x="49" y="36" width="1" height="1" fill="#F0F6F0" />
<rect x="0" y="37" width="1" height="1" fill="#F0F6F0" />
<rect x="1" y="37" width="1" height="1" fill="#F0F6F0" />
<rect x="2" y="37" width="1" height="1" fill="#F0F6F0" />
<rect x="3" y="37" width="1" height="1" fill="#F0F6F0" />
<rect x="4" y="37" width="1" height="1" fill="#F0F6F0" />
<rect x="5" y="37" width="1" height="1" fill="#F0F6F0" />
<rect x="6" y="37" width="1" height="1" fill="#F0F6F0" />
<rect x="7" y="37" width="1" height="1" fill="#F0F6F0" />
<rect x="8" y="37" width="1" height="1" fill="#F0F6F0" />
<rect x="9" y="37" width="1" height="1" fill="#F0F6F0" />
<rect x="40" y="37" width="1" height="1" fill="#F0F6F0" />
<rect x="41" y="37" width="1" height="1" fill="#F0F6F0" />
<rect x="42" y="37" width="1" height="1" fill="#F0F6F0" />
<rect x="43" y="37" width="1" height="1" fill="#F0F6F0" />
<rect x="44" y="37" width="1" height="1" fill="#F0F6F0" />
<rect x="45" y="37" width="1" height="1" fill="#F0F6F0" />
<rect x="46" y="37" width="1" height="1" fill="#F0F6F0" />
<rect x="47" y="37" width="1" height="1" fill="#F0F6F0" />
<rect x="48" y="37" width="1" height="1" fill="#F0F6F0" />
<rect x="49" y="37" width="1" height="1" fill="#F0F6F0" />
<rect x="0" y="38" width="1" height="1" fill="#F0F6F0" />
<rect x="1" y="38" width="1" height="1" fill="#F0F6F0" />
<rect x="2" y="38" width="1" height="1" fill="#F0F6F0" />
<rect x="3" y="38" width="1" height="1" fill="#F0F6F0" />
<rect x="4" y="38" width="1" height="1" fill="#F0F6F0" />
<rect x="5" y="38" width="1" height="1" fill="#F0F6F0" />
<rect x="6" y="38" width="1" height="1" fill="#F0F6F0" />
<rect x="7" y="38" width="1" height="1" fill="#F0F6F0" />
<rect x="8" y="38" width="1" height="1" fill="#F0F6F0" />
<rect x="9" y="38" width="1" height="1" fill="#F0F6F0" />
<rect x="40" y="38" width="1" height="1" fill="#F0F6F0" />
<rect x="41" y="38" width="1" height="1" fill="#F0F6F0" />
<rect x="42" y="38" width="1" height="1" fill="#F0F6F0" />
<rect x="43" y="38" width="1" height="1" fill="#F0F6F0" />
<rect x="44" y="38" width="1" height="1" fill="#F0F6F0" />
<rect x="45" y="38" width="1" height="1" fill="#F0F6F0" />
<rect x="46" y="38" width="1" height="1" fill="#F0F6F0" />
<rect x="47" y="38" width="1" height="1" fill="#F0F6F0" />
<rect x="48" y="38" width="1" height="1" fill="#F0F6F0" />
<rect x="49" y="38" width="1" height="1" fill="#F0F6F0" />
<rect x="0" y="39" width="1" height="1" fill="#F0F6F0" />
<rect x="1" y="39" width="1" height="1" fill="#F0F6F0" />
<rect x="2" y="39" width="1" height="1" fill="#F0F6F0" />
<rect x="3" y="39" width="1" height="1" fill="#F0F6F0" />
<rect x="4" y="39" width="1" height="1" fill="#F0F6F0" />
<rect x="5" y="39" width="1" height="1" fill="#F0F6F0" />
<rect x="6" y="39" width="1" height="1" fill="#F0F6F0" />
<rect x="7" y="39" width="1" height="1" fill="#F0F6F0" />
<rect x="8" y="39" width="1" height="1" fill="#F0F6F0" />
<rect x="9" y="39" width="1" height="1" fill="#F0F6F0" />
<rect x="40" y="39" width="1" height="1" fill="#F0F6F0" />
<rect x="41" y="39" width="1" height="1" fill="#F0F6F0" />
<rect x="42" y="39" width="1" height="1" fill="#F0F6F0" />
<rect x="43" y="39" width="1" height="1" fill="#F0F6F0" />
<rect x="44" y="39" width="1" height="1" fill="#F0F6F0" />
<rect x="45" y="39" width="1" height="1" fill="#F0F6F0" />
<rect x="46" y="39" width="1" height="1" fill="#F0F6F0" />
<rect x="47" y="39" width="1" height="1" fill="#F0F6F0" />
<rect x="48" y="39" width="1" height="1" fill="#F0F6F0" />
<rect x="49" y="39" width="1" height="1" fill="#F0F6F0" />
<rect x="10" y="40" width="1" height="1" fill="#F0F6F0" />
<rect x="11" y="40" width="1" height="1" fill="#F0F6F0" />
<rect x="12" y="40" width="1" height="1" fill="#F0F6F0" />
<rect x="13" y="40" width="1" height="1" fill="#F0F6F0" />
<rect x="14" y="40" width="1" height="1" fill="#F0F6F0" />
<rect x="15" y="40" width="1" height="1" fill="#F0F6F0" />
<rect x="16" y="40" width="1" height="1" fill="#F0F6F0" />
<rect x="17" y="40" width="1" height="1" fill="#F0F6F0" />
<rect x="18" y="40" width="1" height="1" fill="#F0F6F0" />
<rect x="19" y="40" width="1" height="1" fill="#F0F6F0" />
<rect x="30" y="40" width="1" height="1" fill="#F0F6F0" />
<rect x="31" y="40" width="1" height="1" fill="#F0F6F0" />
<rect x="32" y="40" width="1" height="1" fill="#F0F6F0" />
<rect x="33" y="40" width="1" height="1" fill="#F0F6F0" />
<rect x="34" y="40" width="1" height="1" fill="#F0F6F0" />
<rect x="35" y="40" width="1" height="1" fill="#F0F6F0" />
<rect x="36" y="40" width="1" height="1" fill="#F0F6F0" />
<rect x="37" y="40" width="1" height="1" fill="#F0F6F0" />
<rect x="38" y="40" width="1" height="1" fill="#F0F6F0" />
<rect x="39" y="40" width="1" height="1" fill="#F0F6F0" />
<rect x="10" y="41" width="1" height="1" fill="#F0F6F0" />
<rect x="11" y="41" width="1" height="1" fill="#F0F6F0" />
<rect x="12" y="41" width="1" height="1" fill="#F0F6F0" />
<rect x="13" y="41" width="1" height="1" fill="#F0F6F0" />
<rect x="14" y="41" width="1" height="1" fill="#F0F6F0" />
<rect x="15" y="41" width="1" height="1" fill="#F0F6F0" />
<rect x="16" y="41" width="1" height="1" fill="#F0F6F0" />
<rect x="17" y="41" width="1" height="1" fill="#F0F6F0" />
<rect x="18" y="41" width="1" height="1" fill="#F0F6F0" />
<rect x="19" y="41" width="1" height="1" fill="#F0F6F0" />
<rect x="30" y="41" width="1" height="1" fill="#F0F6F0" />
<rect x="31" y="41" width="1" height="1" fill="#F0F6F0" />
<rect x="32" y="41" width="1" height="1" fill="#F0F6F0" />
<rect x="33" y="41" width="1" height="1" fill="#F0F6F0" />
<rect x="34" y="41" width="1" height="1" fill="#F0F6F0" />
<rect x="35" y="41" width="1" height="1" fill="#F0F6F0" />
<rect x="36" y="41" width="1" height="1" fill="#F0F6F0" />
<rect x="37" y="41" width="1" height="1" fill="#F0F6F0" />
<rect x="38" y="41" width="1" height="1" fill="#F0F6F0" />
<rect x="39" y="41" width="1" height="1" fill="#F0F6F0" />
<rect x="10" y="42" width="1" height="1" fill="#F0F6F0" />
<rect x="11" y="42" width="1" height="1" fill="#F0F6F0" />
<rect x="12" y="42" width="1" height="1" fill="#F0F6F0" />
<rect x="13" y="42" width="1" height="1" fill="#F0F6F0" />
<rect x="14" y="42" width="1" height="1" fill="#F0F6F0" />
<rect x="15" y="42" width="1" height="1" fill="#F0F6F0" />
<rect x="16" y="42" width="1" height="1" fill="#F0F6F0" />
<rect x="17" y="42" width="1" height="1" fill="#F0F6F0" />
<rect x="18" y="42" width="1" height="1" fill="#F0F6F0" />
<rect x="19" y="42" width="1" height="1" fill="#F0F6F0" />
<rect x="30" y="42" width="1" height="1" fill="#F0F6F0" />
<rect x="31" y="42" width="1" height="1" fill="#F0F6F0" />
<rect x="32" y="42" width="1" height="1" fill="#F0F6F0" />
<rect x="33" y="42" width="1" height="1" fill="#F0F6F0" />
<rect x="34" y="42" width="1" height="1" fill="#F0F6F0" />
<rect x="35" y="42" width="1" height="1" fill="#F0F6F0" />
<rect x="36" y="42" width="1" height="1" fill="#F0F6F0" />
<rect x="37" y="42" width="1" height="1" fill="#F0F6F0" />
<rect x="38" y="42" width="1" height="1" fill="#F0F6F0" />
<rect x="39" y="42" width="1" height="1" fill="#F0F6F0" />
<rect x="10" y="43" width="1" height="1" fill="#F0F6F0" />
<rect x="11" y="43" width="1" height="1" fill="#F0F6F0" />
<rect x="12" y="43" width="1" height="1" fill="#F0F6F0" />
<rect x="13" y="43" width="1" height="1" fill="#F0F6F0" />
<rect x="14" y="43" width="1" height="1" fill="#F0F6F0" />
<rect x="15" y="43" width="1" height="1" fill="#F0F6F0" />
<rect x="16" y="43" width="1" height="1" fill="#F0F6F0" />
<rect x="17" y="43" width="1" height="1" fill="#F0F6F0" />
<rect x="18" y="43" width="1" height="1" fill="#F0F6F0" />
<rect x="19" y="43" width="1" height="1" fill="#F0F6F0" />
<rect x="30" y="43" width="1" height="1" fill="#F0F6F0" />
<rect x="31" y="43" width="1" height="1" fill="#F0F6F0" />
<rect x="32" y="43" width="1" height="1" fill="#F0F6F0" />
<rect x="33" y="43" width="1" height="1" fill="#F0F6F0" />
<rect x="34" y="43" width="1" height="1" fill="#F0F6F0" />
<rect x="35" y="43" width="1" height="1" fill="#F0F6F0" />
<rect x="36" y="43" width="1" height="1" fill="#F0F6F0" />
<rect x="37" y="43" width="1" height="1" fill="#F0F6F0" />
<rect x="38" y="43" width="1" height="1" fill="#F0F6F0" />
<rect x="39" y="43" width="1" height="1" fill="#F0F6F0" />
<rect x="10" y="44" width="1" height="1" fill="#F0F6F0" />
<rect x="11" y="44" width="1" height="1" fill="#F0F6F0" />
<rect x="12" y="44" width="1" height="1" fill="#F0F6F0" />
<rect x="13" y="44" width="1" height="1" fill="#F0F6F0" />
<rect x="14" y="44" width="1" height="1" fill="#F0F6F0" />
<rect x="15" y="44" width="1" height="1" fill="#F0F6F0" />
<rect x="16" y="44" width="1" height="1" fill="#F0F6F0" />
<rect x="17" y="44" width="1" height="1" fill="#F0F6F0" />
<rect x="18" y="44" width="1" height="1" fill="#F0F6F0" />
<rect x="19" y="44" width="1" height="1" fill="#F0F6F0" />
<rect x="30" y="44" width="1" height="1" fill="#F0F6F0" />
<rect x="31" y="44" width="1" height="1" fill="#F0F6F0" />
<rect x="32" y="44" width="1" height="1" fill="#F0F6F0" />
<rect x="33" y="44" width="1" height="1" fill="#F0F6F0" />
<rect x="34" y="44" width="1" height="1" fill="#F0F6F0" />
<rect x="35" y="44" width="1" height="1" fill="#F0F6F0" />
<rect x="36" y="44" width="1" height="1" fill="#F0F6F0" />
<rect x="37" y="44" width="1" height="1" fill="#F0F6F0" />
<rect x="38" y="44" width="1" height="1" fill="#F0F6F0" />
<rect x="39" y="44" width="1" height="1" fill="#F0F6F0" />
<rect x="10" y="45" width="1" height="1" fill="#F0F6F0" />
<rect x="11" y="45" width="1" height="1" fill="#F0F6F0" />
<rect x="12" y="45" width="1" height="1" fill="#F0F6F0" />
<rect x="13" y="45" width="1" height="1" fill="#F0F6F0" />
<rect x="14" y="45" width="1" height="1" fill="#F0F6F0" />
<rect x="15" y="45" width="1" height="1" fill="#F0F6F0" />
<rect x="16" y="45" width="1" height="1" fill="#F0F6F0" />
<rect x="17" y="45" width="1" height="1" fill="#F0F6F0" />
<rect x="18" y="45" width="1" height="1" fill="#F0F6F0" />
<rect x="19" y="45" width="1" height="1" fill="#F0F6F0" />
<rect x="30" y="45" width="1" height="1" fill="#F0F6F0" />
<rect x="31" y="45" width="1" height="1" fill="#F0F6F0" />
<rect x="32" y="45" width="1" height="1" fill="#F0F6F0" />
<rect x="33" y="45" width="1" height="1" fill="#F0F6F0" />
<rect x="34" y="45" width="1" height="1" fill="#F0F6F0" />
<rect x="35" y="45" width="1" height="1" fill="#F0F6F0" />
<rect x="36" y="45" width="1" height="1" fill="#F0F6F0" />
<rect x="37" y="45" width="1" height="1" fill="#F0F6F0" />
<rect x="38" y="45" width="1" height="1" fill="#F0F6F0" />
<rect x="39" y="45" width="1" height="1" fill="#F0F6F0" />
<rect x="10" y="46" width="1" height="1" fill="#F0F6F0" />
<rect x="11" y="46" width="1" height="1" fill="#F0F6F0" />
<rect x="12" y="46" width="1" height="1" fill="#F0F6F0" />
<rect x="13" y="46" width="1" height="1" fill="#F0F6F0" />
<rect x="14" y="46" width="1" height="1" fill="#F0F6F0" />
<rect x="15" y="46" width="1" height="1" fill="#F0F6F0" />
<rect x="16" y="46" width="1" height="1" fill="#F0F6F0" />
<rect x="17" y="46" width="1" height="1" fill="#F0F6F0" />
<rect x="18" y="46" width="1" height="1" fill="#F0F6F0" />
<rect x="19" y="46" width="1" height="1" fill="#F0F6F0" />
<rect x="30" y="46" width="1" height="1" fill="#F0F6F0" />
<rect x="31" y="46" width="1" height="1" fill="#F0F6F0" />
<rect x="32" y="46" width="1" height="1" fill="#F0F6F0" />
<rect x="33" y="46" width="1" height="1" fill="#F0F6F0" />
<rect x="34" y="46" width="1" height="1" fill="#F0F6F0" />
<rect x="35" y="46" width="1" height="1" fill="#F0F6F0" />
<rect x="36" y="46" width="1" height="1" fill="#F0F6F0" />
<rect x="37" y="46" width="1" height="1" fill="#F0F6F0" />
<rect x="38" y="46" width="1" height="1" fill="#F0F6F0" />
<rect x="39" y="46" width="1" height="1" fill="#F0F6F0" />
<rect x="10" y="47" width="1" height="1" fill="#F0F6F0" />
<rect x="11" y="47" width="1" height="1" fill="#F0F6F0" />
<rect x="12" y="47" width="1" height="1" fill="#F0F6F0" />
<rect x="13" y="47" width="1" height="1" fill="#F0F6F0" />
<rect x="14" y="47" width="1" height="1" fill="#F0F6F0" />
<rect x="15" y="47" width="1" height="1" fill="#F0F6F0" />
<rect x="16" y="47" width="1" height="1" fill="#F0F6F0" />
<rect x="17" y="47" width="1" height="1" fill="#F0F6F0" />
<rect x="18" y="47" width="1" height="1" fill="#F0F6F0" />
<rect x="19" y="47" width="1" height="1" fill="#F0F6F0" />
<rect x="30" y="47" width="1" height="1" fill="#F0F6F0" />
<rect x="31" y="47" width="1" height="1" fill="#F0F6F0" />
<rect x="32" y="47" width="1" height="1" fill="#F0F6F0" />
<rect x="33" y="47" width="1" height="1" fill="#F0F6F0" />
<rect x="34" y="47" width="1" height="1" fill="#F0F6F0" />
<rect x="35" y="47" width="1" height="1" fill="#F0F6F0" />
<rect x="36" y="47" width="1" height="1" fill="#F0F6F0" />
<rect x="37" y="47" width="1" height="1" fill="#F0F6F0" />
<rect x="38" y="47" width="1" height="1" fill="#F0F6F0" />
<rect x="39" y="47" width="1" height="1" fill="#F0F6F0" />
<rect x="10" y="48" width="1" height="1" fill="#F0F6F0" />
<rect x="11" y="48" width="1" height="1" fill="#F0F6F0" />
<rect x="12" y="48" width="1" height="1" fill="#F0F6F0" />
<rect x="13" y="48" width="1" height="1" fill="#F0F6F0" />
<rect x="14" y="48" width="1" height="1" fill="#F0F6F0" />
<rect x="15" y="48" width="1" height="1" fill="#F0F6F0" />
<rect x="16" y="48" width="1" height="1" fill="#F0F6F0" />
<rect x="17" y="48" width="1" height="1" fill="#F0F6F0" />
<rect x="18" y="48" width="1" height="1" fill="#F0F6F0" />
<rect x="19" y="48" width="1" height="1" fill="#F0F6F0" />
<rect x="30" y="48" width="1" height="1" fill="#F0F6F0" />
<rect x="31" y="48" width="1" height="1" fill="#F0F6F0" />
<rect x="32" y="48" width="1" height="1" fill="#F0F6F0" />
<rect x="33" y="48" width="1" height="1" fill="#F0F6F0" />
<rect x="34" y="48" width="1" height="1" fill="#F0F6F0" />
<rect x="35" y="48" width="1" height="1" fill="#F0F6F0" />
<rect x="36" y="48" width="1" height="1" fill="#F0F6F0" />
<rect x="37" y="48" width="1" height="1" fill="#F0F6F0" />
<rect x="38" y="48" width="1" height="1" fill="#F0F6F0" />
<rect x="39" y="48" width="1" height="1" fill="#F0F6F0" />
<rect x="10" y="49" width="1" height="1" fill="#F0F6F0" />
<rect x="11" y="49" width="1" height="1" fill="#F0F6F0" />
<rect x="12" y="49" width="1" height="1" fill="#F0F6F0" />
<rect x="13" y="49" width="1" height="1" fill="#F0F6F0" />
<rect x="14" y="49" width="1" height="1" fill="#F0F6F0" />
<rect x="15" y="49" width="1" height="1" fill="#F0F6F0" />
<rect x="16" y="49" width="1" height="1" fill="#F0F6F0" />
<rect x="17" y="49" width="1" height="1" fill="#F0F6F0" />
<rect x="18" y="49" width="1" height="1" fill="#F0F6F0" />
<rect x="19" y="49" width="1" height="1" fill="#F0F6F0" />
<rect x="30" y="49" width="1" height="1" fill="#F0F6F0" />
<rect x="31" y="49" width="1" height="1" fill="#F0F6F0" />
<rect x="32" y="49" width="1" height="1" fill="#F0F6F0" />
<rect x="33" y="49" width="1" height="1" fill="#F0F6F0" />
<rect x="34" y="49" width="1" height="1" fill="#F0F6F0" />
<rect x="35" y="49" width="1" height="1" fill="#F0F6F0" />
<rect x="36" y="49" width="1" height="1" fill="#F0F6F0" />
<rect x="37" y="49" width="1" height="1" fill="#F0F6F0" />
<rect x="38" y="49" width="1" height="1" fill="#F0F6F0" />
<rect x="39" y="49" width="1" height="1" fill="#F0F6F0" />
<rect x="20" y="50" width="1" height="1" fill="#F0F6F0" />
<rect x="21" y="50" width="1" height="1" fill="#F0F6F0" />
<rect x="22" y="50" width="1" height="1" fill="#F0F6F0" />
<rect x="23" y="50" width="1" height="1" fill="#F0F6F0" />
<rect x="24" y="50" width="1" height="1" fill="#F0F6F0" />
<rect x="25" y="50" width="1" height="1" fill="#F0F6F0" />
<rect x="26" y="50" width="1" height="1" fill="#F0F6F0" />
<rect x="27" y="50" width="1" height="1" fill="#F0F6F0" />
<rect x="28" y="50" width="1" height="1" fill="#F0F6F0" />
<rect x="29" y="50" width="1" height="1" fill="#F0F6F0" />
<rect x="20" y="51" width="1" height="1" fill="#F0F6F0" />
<rect x="21" y="51" width="1" height="1" fill="#F0F6F0" />
<rect x="22" y="51" width="1" height="1" fill="#F0F6F0" />
<rect x="23" y="51" width="1" height="1" fill="#F0F6F0" />
<rect x="24" y="51" width="1" height="1" fill="#F0F6F0" />
<rect x="25" y="51" width="1" height="1" fill="#F0F6F0" />
<rect x="26" y="51" width="1" height="1" fill="#F0F6F0" />
<rect x="27" y="51" width="1" height="1" fill="#F0F6F0" />
<rect x="28" y="51" width="1" height="1" fill="#F0F6F0" />
<rect x="29" y="51" width="1" height="1" fill="#F0F6F0" />
<rect x="20" y="52" width="1" height="1" fill="#F0F6F0" />
<rect x="21" y="52" width="1" height="1" fill="#F0F6F0" />
<rect x="22" y="52" width="1" height="1" fill="#F0F6F0" />
<rect x="23" y="52" width="1" height="1" fill="#F0F6F0" />
<rect x="24" y="52" width="1" height="1" fill="#F0F6F0" />
<rect x="25" y="52" width="1" height="1" fill="#F0F6F0" />
<rect x="26" y="52" width="1" height="1" fill="#F0F6F0" />
<rect x="27" y="52" width="1" height="1" fill="#F0F6F0" />
<rect x="28" y="52" width="1" height="1" fill="#F0F6F0" />
<rect x="29" y="52" width="1" height="1" fill="#F0F6F0" />
<rect x="20" y="53" width="1" height="1" fill="#F0F6F0" />
<rect x="21" y="53" width="1" height="1" fill="#F0F6F0" />
<rect x="22" y="53" width="1" height="1" fill="#F0F6F0" />
<rect x="23" y="53" width="1" height="1" fill="#F0F6F0" />
<rect x="24" y="53" width="1" height="1" fill="#F0F6F0" />
<rect x="25" y="53" width="1" height="1" fill="#F0F6F0" />
<rect x="26" y="53" width="1" height="1" fill="#F0F6F0" />
<rect x="27" y="53" width="1" height="1" fill="#F0F6F0" />
<rect x="28" y="53" width="1" height="1" fill="#F0F6F0" />
<rect x="29" y="53" width="1" height="1" fill="#F0F6F0" />
<rect x="20" y="54" width="1" height="1" fill="#F0F6F0" />
<rect x="21" y="54" width="1" height="1" fill="#F0F6F0" />
<rect x="22" y="54" width="1" height="1" fill="#F0F6F0" />
<rect x="23" y="54" width="1" height="1" fill="#F0F6F0" />
<rect x="24" y="54" width="1" height="1" fill="#F0F6F0" />
<rect x="25" y="54" width="1" height="1" fill="#F0F6F0" />
<rect x="26" y="54" width="1" height="1" fill="#F0F6F0" />
<rect x="27" y="54" width="1" height="1" fill="#F0F6F0" />
<rect x="28" y="54" width="1" height="1" fill="#F0F6F0" />
<rect x="29" y="54" width="1" height="1" fill="#F0F6F0" />
<rect x="20" y="55" width="1" height="1" fill="#F0F6F0" />
<rect x="21" y="55" width="1" height="1" fill="#F0F6F0" />
<rect x="22" y="55" width="1" height="1" fill="#F0F6F0" />
<rect x="23" y="55" width="1" height="1" fill="#F0F6F0" />
<rect x="24" y="55" width="1" height="1" fill="#F0F6F0" />
<rect x="25" y="55" width="1" height="1" fill="#F0F6F0" />
<rect x="26" y="55" width="1" height="1" fill="#F0F6F0" />
<rect x="27" y="55" width="1" height="1" fill="#F0F6F0" />
<rect x="28" y="55" width="1" height="1" fill="#F0F6F0" />
<rect x="29" y="55" width="1" height="1" fill="#F0F6F0" />
<rect x="20" y="56" width="1" height="1" fill="#F0F6F0" />
<rect x="21" y="56" width="1" height="1" fill="#F0F6F0" />
<rect x="22" y="56" width="1" height="1" fill="#F0F6F0" />
<rect x="23" y="56" width="1" height="1" fill="#F0F6F0" />
<rect x="24" y="56" width="1" height="1" fill="#F0F6F0" />
<rect x="25" y="56" width="1" height="1" fill="#F0F6F0" />
<rect x="26" y="56" width="1" height="1" fill="#F0F6F0" />
<rect x="27" y="56" width="1" height="1" fill="#F0F6F0" />
<rect x="28" y="56" width="1" height="1" fill="#F0F6F0" />
<rect x="29" y="56" width="1" height="1" fill="#F0F6F0" />
<rect x="20" y="57" width="1" height="1" fill="#F0F6F0" />
<rect x="21" y="57" width="1" height="1" fill="#F0F6F0" />
<rect x="22" y="57" width="1" height="1" fill="#F0F6F0" />
<rect x="23" y="57" width="1" height="1" fill="#F0F6F0" />
<rect x="24" y="57" width="1" height="1" fill="#F0F6F0" />
<rect x="25" y="57" width="1" height="1" fill="#F0F6F0" />
<rect x="26" y="57" width="1" height="1" fill="#F0F6F0" />
<rect x="27" y="57" width="1" height="1" fill="#F0F6F0" />
<rect x="28" y="57" width="1" height="1" fill="#F0F6F0" />
<rect x="29" y="57" width="1" height="1" fill="#F0F6F0" />
<rect x="20" y="58" width="1" height="1" fill="#F0F6F0" />
<rect x="21" y="58" width="1" height="1" fill="#F0F6F0" />
<rect x="22" y="58" width="1" height="1" fill="#F0F6F0" />
<rect x="23" y="58" width="1" height="1" fill="#F0F6F0" />
<rect x="24" y="58" width="1" height="1" fill="#F0F6F0" />
<rect x="25" y="58" width="1" height="1" fill="#F0F6F0" />
<rect x="26" y="58" width="1" height="1" fill="#F0F6F0" />
<rect x="27" y="58" width="1" height="1" fill="#F0F6F0" />
<rect x="28" y="58" width="1" height="1" fill="#F0F6F0" />
<rect x="29" y="58" width="1" height="1" fill="#F0F6F0" />
<rect x="20" y="59" width="1" height="1" fill="#F0F6F0" />
<rect x="21" y="59" width="1" height="1" fill="#F0F6F0" />
<rect x="22" y="59" width="1" height="1" fill="#F0F6F0" />
<rect x="23" y="59" width="1" height="1" fill="#F0F6F0" />
<rect x="24" y="59" width="1" height="1" fill="#F0F6F0" />
<rect x="25" y="59" width="1" height="1" fill="#F0F6F0" />
<rect x="26" y="59" width="1" height="1" fill="#F0F6F0" />
<rect x="27" y="59" width="1" height="1" fill="#F0F6F0" />
<rect x="28" y="59" width="1" height="1" fill="#F0F6F0" />
<rect x="29" y="59" width="1" height="1" fill="#F0F6F0" />
</svg>